<?xml version="1.0" encoding="UTF-8"?>
<!-- Generator: Adobe Illustrator 15.0.2, SVG Export Plug-In . SVG Version: 6.00 Build 0)  -->
<!DOCTYPE svg PUBLIC "-//W3C//DTD SVG 1.1//EN" "http://www.w3.org/Graphics/SVG/1.1/DTD/svg11.dtd">
<svg xmlns="http://www.w3.org/2000/svg" xmlns:xlink="http://www.w3.org/1999/xlink" version="1.1" id="Layer_1" x="0px" y="0px" width="512px" height="450.446px" viewBox="0.328 0 512 450.446" enable-background="new 0.328 0 512 450.446" xml:space="preserve">
<path d="M500.73,56.069L382.689,1.704c-0.345-0.159-0.724-0.197-1.068-0.339c-0.802-0.315-1.593-0.554-2.411-0.766  c-0.808-0.201-1.599-0.37-2.411-0.473S375.179,0,374.371,0c-0.835,0-1.659,0.033-2.494,0.136c-0.813,0.103-1.56,0.262-2.355,0.462  c-0.829,0.211-1.643,0.457-2.455,0.777c-0.356,0.136-0.725,0.175-1.069,0.334L256.322,52.228L146.665,1.709  c-0.349-0.159-0.719-0.198-1.066-0.334c-0.815-0.32-1.626-0.565-2.47-0.777c-0.773-0.195-1.545-0.359-2.33-0.457  C139.961,0.033,139.14,0,138.288,0c-0.818,0-1.612,0.033-2.423,0.131c-0.815,0.103-1.601,0.267-2.405,0.473  c-0.826,0.206-1.625,0.451-2.425,0.766c-0.354,0.137-0.724,0.181-1.071,0.34L11.938,56.069C4.86,59.332,0.328,66.406,0.328,74.201  v356.29c0,6.793,3.46,13.14,9.19,16.804c3.263,2.082,7.007,3.151,10.766,3.151c2.839,0,5.69-0.602,8.346-1.826l109.683-50.513  l109.658,50.513c0.017,0,0.033,0.011,0.045,0.011c1.18,0.552,2.399,0.925,3.644,1.226c0.301,0.072,0.593,0.128,0.889,0.189  c1.25,0.245,2.502,0.4,3.774,0.4s2.525-0.155,3.772-0.4c0.301-0.062,0.596-0.117,0.891-0.189c1.236-0.301,2.461-0.674,3.642-1.226  c0.012,0,0.022,0,0.045-0.011l109.666-50.513l109.688,50.513c2.656,1.225,5.507,1.826,8.347,1.826c3.758,0,7.5-1.069,10.763-3.151  c5.734-3.675,9.192-10.011,9.192-16.804V74.201C512.334,66.406,507.802,59.332,500.73,56.069z M236.367,399.327l-78.094-35.985V51  l78.094,35.977V399.327z M40.239,86.977l78.118-35.982v312.348l-78.118,35.985V86.977z M276.275,86.977L354.383,51v312.353  l-78.107,35.985V86.977z M472.423,399.327l-78.118-35.975V50.994l78.118,35.982V399.327z" fill="#000000"/>
</svg>
